/* XPM */
static char * koct_window_xpm[] = {
"16 16 53 1",
" 	c None",
".	c #99CC33",
"+	c #92C825",
"@	c #92C826",
"#	c #FFFFFF",
"$	c #DDDAE4",
"%	c #9B98A2",
"&	c #C7C4CD",
"*	c #FEFEFE",
"=	c #D4D4D4",
"-	c #272727",
";	c #000000",
">	c #282828",
",	c #F3F3F3",
"'	c #FDFDFD",
")	c #BDBDBD",
"!	c #565656",
"~	c #DBDBDB",
"{	c #0C0C0C",
"]	c #F2F2F2",
"^	c #2E2E2E",
"/	c #CECECE",
"(	c #ACACAC",
"_	c #CACACA",
":	c #414141",
"<	c #F4F4F4",
"[	c #0F0F0F",
"}	c #121212",
"|	c #F6F6F6",
"1	c #D0D0D0",
"2	c #5A5A5A",
"3	c #BEBEBE",
"4	c #8D8D8D",
"5	c #060606",
"6	c #444444",
"7	c #C3C3C3",
"8	c #686868",
"9	c #CBCBCB",
"0	c #B1B1B1",
"a	c #C5C5C5",
"b	c #C9C9C9",
"c	c #1A1A1A",
"d	c #EBEBEB",
"e	c #DDDDDD",
"f	c #C8C8C8",
"g	c #DCDCDC",
"h	c #262626",
"i	c #424242",
"j	c #0B0B0B",
"k	c #C7C7C7",
"l	c #FFFEFF",
"m	c #A7A4AD",
"n	c #B7B4BE",
".+@@@@@@@@@@@@+.",
"+#######$%&####+",
"@##**#=-;;;>,'#@",
"@#**#);;;;;;!##@",
"@#**~;;;;;;;{]#@",
"@#*#^;;;;;;;;/#@",
"@##(;;;;;;;;;_#@",
"@##:;;;;;;;;;=#@",
"@#<[;;;;;;;;}|#@",
"@#1;23345;;;6##@",
"@#78#''#9;;;0##@",
"@#ab'***'c;-#'#@",
"@#dd*e##f;;~**#@",
"@#*'*ghi;jk#**#@",
"+#####lmn######+",
".+@@@@@@@@@@@@+."};
